#!OML:ASF X:\für Bonn\!DataBase\2005_08_12_Daniel\c3d\Daniel.ASF
:FULLY-SPECIFIED
:DEGREES
204
root 14.1235 1.76446 1.10144 -1002.57 -82.9162 -154.796
lowerback 69.5626 -5.031 8.56862
upperback 15.478 -5.87572 -2.96684
thorax -4.07055 -4.70155 -4.20583
lowerneck 0.525076 7.58511 -5.06935
upperneck 9.8874 10.6284 -9.29425
head 3.42014 4.56081 -1.90142
rclavicle 5.18828e-014 3.06128e-014
rhumerus -38.8746 -16.9548 -78.7668
rradius 7.4454
rwrist 70.9881
rhand -67.0588 -293.661
rfingers 7.12502
rthumb -38.8423 -319.226
lclavicle 5.18828e-014 3.06128e-014
lhumerus -755.708 33.0132 -643.632
lradius 23.4039
lwrist 10.7013
lhand -72.451 314.341
lfingers 7.12502
lthumb -43.902 338.261
rfemur 288.889 -33.4619 404.431
rtibia 109.106
rfoot 34.8612 6.90341
rtoes 13.8686
lfemur 60.2427 72.2849 93.2225
ltibia 144.782
lfoot 49.3188 -26.1984
ltoes 8.7292
205
root 14.1757 1.73137 1.09068 -1000.85 -83.32 -156.822
lowerback 69.4789 -4.97438 8.31725
upperback 15.4057 -5.96777 -2.99921
thorax -4.179 -4.74574 -4.09512
lowerneck 0.365682 7.43837 -4.91264
upperneck 10.1358 10.4512 -8.92595
head 3.51322 4.47962 -1.80209
rclavicle 3.21286e-014 2.38542e-014
rhumerus -39.349 -16.7906 -78.0022
rradius 8.14537
rwrist 71.1003
rhand -66.6496 -294.167
rfingers 7.12502
rthumb -38.4562 -319.841
lclavicle 3.21286e-014 2.38542e-014
lhumerus -755.5 32.9952 -643.535
lradius 23.4848
lwrist 11.0279
lhand -72.2708 314.584
lfingers 7.12502
lthumb -43.7337 338.566
rfemur 289.915 -33.4021 403.831
rtibia 107.591
rfoot 33.8142 6.51914
rtoes 14.4327
lfemur 61.1456 72.7064 93.847
ltibia 144.539
lfoot 49.3755 -25.7054
ltoes 8.45803
206
root 14.2288 1.7026 1.07994 -999.197 -83.7276 -158.768
lowerback 69.3426 -4.92851 8.10444
upperback 15.3726 -6.052 -3.05309
thorax -4.24659 -4.78042 -4.03127
lowerneck 0.157105 7.26006 -4.72735
upperneck 10.4077 10.2383 -8.6056
head 3.62908 4.37816 -1.72315
rclavicle 2.18663e-015 -3.18055e-015
rhumerus -40.2186 -16.6223 -77.0478
rradius 9.48859
rwrist 71.1671
rhand -66.2086 -294.59
rfingers 7.12502
rthumb -38.04 -320.378
lclavicle 2.18663e-015 -3.18055e-015
lhumerus -755.19 32.9136 -643.405
lradius 23.5923
lwrist 11.2725
lhand -72.1242 315.117
lfingers 7.12502
lthumb -43.5969 339.149
rfemur 290.908 -33.4183 403.231
rtibia 106.142
rfoot 32.577 6.45904
rtoes 14.0245
lfemur 61.8573 73.1215 94.2604
ltibia 144.272
lfoot 49.425 -25.2906
ltoes 8.12469
207
root 14.2829 1.67689 1.06722 -997.622 -84.1346 -160.653
lowerback 69.2406 -4.86995 7.90217
upperback 15.3283 -6.10842 -3.09984
thorax -4.32087 -4.80131 -3.97432
lowerneck -0.0161581 7.07668 -4.50059
upperneck 10.6774 10.0115 -8.29178
head 3.74117 4.27359 -1.65558
rclavicle -1.59773e-014 -6.83819e-014
rhumerus -41.0731 -16.5131 -76.0919
rradius 10.7172
rwrist 71.2129
rhand -65.7914 -294.492
rfingers 7.12502
rthumb -37.6459 -320.387
lclavicle -1.59773e-014 -6.83819e-014
lhumerus -754.86 32.8211 -643.26
lradius 23.7446
lwrist 11.4546
lhand -71.9513 316.285
lfingers 7.12502
lthumb -43.4354 340.375
rfemur 291.936 -33.4642 402.599
rtibia 104.733
rfoot 31.2107 6.49792
rtoes 13.0742
lfemur 62.2587 73.5156 94.3819
ltibia 143.989
lfoot 49.5373 -24.8601
ltoes 7.91347
208
root 14.3358 1.65357 1.05358 -996.091 -84.5437 -162.477
lowerback 69.12 -4.76219 7.66063
upperback 15.2954 -6.13285 -3.09838
thorax -4.37408 -4.81452 -3.86219
lowerneck -0.14415 6.88075 -4.31237
upperneck 10.872 9.75802 -8.01982
head 3.81886 4.15865 -1.59902
rclavicle 2.49723e-015 -3.85642e-014
rhumerus -40.6898 -10.5306 -80.3625
rradius 12.0093
rwrist 63.5921
rhand -65.2683 -296.666
rfingers 7.12502
rthumb -37.1514 -322.692
lclavicle 2.49723e-015 -3.85642e-014
lhumerus -754.508 32.8594 -643.091
lradius 23.9494
lwrist 11.5248
lhand -71.6817 317.762
lfingers 7.12502
lthumb -43.1834 341.943
rfemur 292.938 -33.5091 401.967
rtibia 103.362
rfoot 29.7241 6.53357
rtoes 11.8232
lfemur 62.4682 73.9161 94.3102
ltibia 143.698
lfoot 49.6679 -24.3673
ltoes 7.86823
209
root 14.388 1.63485 1.03934 -994.643 -84.9693 -164.231
lowerback 69.0334 -4.66215 7.4492
upperback 15.2507 -6.14095 -3.1244
thorax -4.44036 -4.81332 -3.79893
lowerneck -0.203766 6.67339 -4.06999
upperneck 11.0536 9.47639 -7.7154
head 3.87955 4.03719 -1.54444
rclavicle 1.87789e-014 9.14409e-015
rhumerus -40.9648 -6.26149 -83.3791
rradius 13.3331
rwrist 58.0325
rhand -64.8229 -298.45
rfingers 7.12502
rthumb -36.7301 -324.584
lclavicle 1.87789e-014 9.14409e-015
lhumerus -754.111 32.7357 -642.888
lradius 24.1933
lwrist 11.6166
lhand -71.4969 319.362
lfingers 7.12502
lthumb -43.0108 343.605
rfemur 294.001 -33.5767 401.279
rtibia 102.009
rfoot 28.2908 6.62593
rtoes 10.5774
lfemur 62.4839 74.2692 93.9806
ltibia 143.383
lfoot 49.7462 -23.9404
ltoes 7.89938
210
root 14.4387 1.6176 1.02397 -993.288 -85.3846 -165.907
lowerback 68.9865 -4.54593 7.22941
upperback 15.1861 -6.12823 -3.11456
thorax -4.51994 -4.80661 -3.69904
lowerneck -0.234465 6.46266 -3.90911
upperneck 11.2244 9.1859 -7.42088
head 3.92753 3.90832 -1.48129
rclavicle -1.32502e-014 -3.8763e-014
rhumerus -41.5427 -2.79279 -85.7824
rradius 14.6734
rwrist 53.4674
rhand -64.4045 -299.966
rfingers 7.12502
rthumb -36.334 -326.2
lclavicle -1.32502e-014 -3.8763e-014
lhumerus -753.739 32.6572 -642.655
lradius 24.5112
lwrist 11.6529
lhand -71.2217 321.411
lfingers 7.12502
lthumb -42.7533 345.744
rfemur 295.105 -33.6464 400.576
rtibia 100.661
rfoot 27.0326 6.85313
rtoes 9.27839
lfemur 62.2464 74.5861 93.405
ltibia 143.075
lfoot 49.773 -23.5627
ltoes 7.98762
211
root 14.488 1.60321 1.00908 -991.973 -85.7862 -167.509
lowerback 68.8603 -4.4716 7.13911
upperback 15.1627 -6.07541 -3.13645
thorax -4.55648 -4.76681 -3.70918
lowerneck -0.264359 6.20103 -3.74274
upperneck 11.387 8.82202 -7.08278
head 3.96885 3.74729 -1.40738
rclavicle 5.2584e-014 5.725e-014
rhumerus -42.1843 -0.445988 -87.5681
rradius 15.8555
rwrist 50.0952
rhand -64.1278 -301.25
rfingers 7.12502
rthumb -36.072 -327.549
lclavicle 5.2584e-014 5.725e-014
lhumerus -753.245 32.3053 -642.339
lradius 24.8634
lwrist 11.7986
lhand -70.9523 323.615
lfingers 7.12502
lthumb -42.5011 348.035
rfemur 296.204 -33.6899 399.876
rtibia 99.2952
rfoot 26.0222 7.08328
rtoes 8.51321
lfemur 61.9049 74.9124 92.7235
ltibia 142.778
lfoot 49.7505 -23.2916
ltoes 7.9863
212
root 14.5384 1.592 0.993878 -990.736 -86.1756 -169.076
lowerback 68.77 -4.45601 7.18226
upperback 15.1255 -5.99029 -3.19375
thorax -4.60727 -4.69786 -3.82639
lowerneck -0.199706 5.88882 -3.67094
upperneck 11.5046 8.37091 -6.63548
head 3.96358 3.54901 -1.2874
rclavicle 6.62667e-015 3.93594e-014
rhumerus -42.8893 1.10424 -88.9542
rradius 16.9132
rwrist 47.4881
rhand -63.8638 -302.41
rfingers 7.12502
rthumb -35.8219 -328.77
lclavicle 6.62667e-015 3.93594e-014
lhumerus -752.762 31.6431 -641.964
lradius 25.2917
lwrist 12.0268
lhand -70.6596 326.157
lfingers 7.12502
lthumb -42.227 350.671
rfemur 297.414 -33.7474 399.135
rtibia 97.8685
rfoot 25.2514 7.30323
rtoes 8.39872
lfemur 61.1628 75.1947 91.6906
ltibia 142.482
lfoot 49.6925 -23.2046
ltoes 7.76661
213
root 14.5887 1.58283 0.978531 -989.545 -86.5642 -170.585
lowerback 68.6232 -4.46545 7.31548
upperback 15.1222 -5.872 -3.25563
thorax -4.61856 -4.60592 -4.00362
lowerneck -0.182659 5.5493 -3.66808
upperneck 11.6508 7.88349 -6.12041
head 3.9725 3.33085 -1.13296
rclavicle -2.01611e-014 -3.06128e-014
rhumerus -43.5869 2.31272 -90.1854
rradius 17.9363
rwrist 45.1063
rhand -63.5961 -303.555
rfingers 7.12502
rthumb -35.5682 -329.976
lclavicle -2.01611e-014 -3.06128e-014
lhumerus -752.211 30.9191 -641.552
lradius 25.7113
lwrist 12.2222
lhand -70.2933 328.145
lfingers 7.12502
lthumb -41.8838 352.774
rfemur 298.609 -33.7695 398.388
rtibia 96.3973
rfoot 24.6756 7.43115
rtoes 8.53349
lfemur 60.1861 75.4844 90.4476
ltibia 142.196
lfoot 49.6635 -23.0876
ltoes 7.58085
214
root 14.6414 1.57641 0.963612 -988.044 -86.9252 -172.409
lowerback 68.4814 -4.50381 7.51309
upperback 15.1052 -5.73966 -3.34113
thorax -4.64558 -4.49954 -4.23906
lowerneck -0.116494 5.1944 -3.67412
upperneck 11.7962 7.36992 -5.61487
head 3.97505 3.09934 -0.982553
rclavicle -4.11236e-015 2.48481e-014
rhumerus -44.2923 3.27511 -91.3225
rradius 18.8982
rwrist 42.9062
rhand -63.3431 -304.588
rfingers 7.12502
rthumb -35.3283 -331.067
lclavicle -4.11236e-015 2.48481e-014
lhumerus -751.748 30.0684 -641.16
lradius 26.2179
lwrist 12.4378
lhand -69.8743 330.571
lfingers 7.12502
lthumb -41.4908 355.329
rfemur 299.84 -33.7599 397.629
rtibia 94.8852
rfoot 24.2866 7.44433
rtoes 9.05771
lfemur 58.9637 75.7664 89.0384
ltibia 141.931
lfoot 49.5781 -23.2374
ltoes 7.14057
215
root 14.6939 1.572 0.949224 -986.898 -87.2824 -173.867
lowerback 68.2824 -4.57928 7.76623
upperback 15.1299 -5.61938 -3.43711
thorax -4.62768 -4.39512 -4.50794
lowerneck -0.0836588 4.84427 -3.79555
upperneck 11.9145 6.86048 -5.04937
head 3.97076 2.86814 -0.791693
rclavicle -6.72141e-015 0
rhumerus -44.9496 4.05293 -92.3608
rradius 19.8538
rwrist 40.9267
rhand -63.1086 -305.695
rfingers 7.12502
rthumb -35.1059 -332.226
lclavicle -6.72141e-015 0
lhumerus -751.274 29.2784 -640.792
lradius 26.7448
lwrist 12.5713
lhand -69.4044 332.476
lfingers 7.12502
lthumb -41.0498 357.377
rfemur 301.036 -33.7481 396.879
rtibia 93.367
rfoot 24.038 7.42081
rtoes 9.48967
lfemur 57.4122 76.063 87.3369
ltibia 141.672
lfoot 49.5038 -23.2874
ltoes 6.72218
216
root 14.7451 1.56889 0.935343 -985.599 -87.6371 -175.486
lowerback 68.0919 -4.65616 8.00182
upperback 15.1317 -5.50903 -3.52714
thorax -4.63477 -4.29631 -4.75708
lowerneck -0.00251881 4.52177 -4.02614
upperneck 12.0387 6.3792 -4.42175
head 3.95799 2.64814 -0.562008
rclavicle 2.55066e-014 3.81667e-014
rhumerus -45.5917 4.75948 -93.3387
rradius 20.7303
rwrist 39.0875
rhand -62.9206 -306.682
rfingers 7.12502
rthumb -34.9276 -333.255
lclavicle 2.55066e-014 3.81667e-014
lhumerus -750.859 28.5518 -640.459
lradius 27.2697
lwrist 12.6937
lhand -68.9266 334.391
lfingers 7.12502
lthumb -40.6008 359.433
rfemur 302.243 -33.7108 396.107
rtibia 91.8601
rfoot 23.8894 7.32715
rtoes 10.0393
lfemur 55.7243 76.298 85.473
ltibia 141.426
lfoot 49.3211 -23.4482
ltoes 6.0682
